<svg version="1.1" id="Capa_1" xmlns="http://www.w3.org/2000/svg" xmlns:xlink="http://www.w3.org/1999/xlink" x="0px" y="0px"
	 viewBox="0 0 385 385" style="enable-background:new 0 0 385 385;" xml:space="preserve">
<g>
	<path d="M385,75.604h-94.177V9.164H94.176v66.44H0v190.56h9.164v109.672h366.671V266.164H385V75.604z M275.823,24.164v11.347
		H109.176V24.164H275.823z M109.176,50.511h166.647v25.093H109.176V50.511z M15,90.604h79.176h196.647H370v160.56H250.402v-68.156
		H134.597v68.156H15V90.604z M235.402,198.009v121.589h-85.805V198.009H235.402z M24.164,331.757
		c14.581,2.985,26.093,14.497,29.079,29.079H24.164V331.757z M331.757,360.836c2.985-14.581,14.497-26.093,29.078-29.079v29.079
		H331.757z M360.835,316.546c-22.866,3.297-40.993,21.424-44.29,44.29H68.454c-3.297-22.866-21.425-40.994-44.29-44.29v-50.381
		h110.433v68.434h115.805v-68.434h110.433V316.546z" fill="#ffffff"/>
	<path d="M221.765,267.022h-58.53v38.938h58.53V267.022z M206.765,290.96h-28.53v-8.938h28.53V290.96z"/>
	<rect x="163.235" y="213.007" width="58.53" height="15" fill="#ffffff"/>
</g>
<g>
</g>
<g>
</g>
<g>
</g>
<g>
</g>
<g>
</g>
<g>
</g>
<g>
</g>
<g>
</g>
<g>
</g>
<g>
</g>
<g>
</g>
<g>
</g>
<g>
</g>
<g>
</g>
<g>
</g>
</svg>
